<svg xmlns="http://www.w3.org/2000/svg" width="24" height="24" viewBox="0 0 24 24" fill="none" stroke="#c5a059" stroke-width="2" stroke-linecap="round" stroke-linejoin="round">
  <rect x="4" y="2" width="16" height="20" rx="2" ry="2"></rect>
  <line x1="9" y1="22" x2="9" y2="16"></line>
  <line x1="15" y1="22" x2="15" y2="16"></line>
  <line x1="9" y1="16" x2="15" y2="16"></line>
  <path d="M8 6h2v2H8V6zm4 0h2v2h-2V6zm4 0h2v2h-2V6zm-8 4h2v2H8v-2zm4 0h2v2h-2v-2zm4 0h2v2h-2v-2zm-8 4h2v2H8v-2zm4 0h2v2h-2v-2zm4 0h2v2h-2v-2z"></path>
</svg>
