<svg xmlns="http://www.w3.org/2000/svg" width="24" height="24" viewBox="0 0 24 24" fill="none" stroke="currentColor" stroke-width="2" stroke-linecap="round" stroke-linejoin="round">
  <path d="M22.54 6.42a2.78 2.78 0 0 0-1.95-1.96C18.88 4 12 4 12 4s-6.88 0-8.59.46a2.78 2.78 0 0 0-1.95 1.96A29 29 0 0 0 1 11.75a29 29 0 0 0 .46 5.33A2.78 2.78 0 0 0 3.41 19c1.71.46 8.59.46 8.59.46s6.88 0 8.59-.46a2.78 2.78 0 0 0 1.95-1.96 29 29 0 0 0 .46-5.33 29 29 0 0 0-.46-5.33z"></path>
  <polygon points="9.75 15.02 15.5 11.75 9.75 8.48 9.75 15.02"></polygon>
</svg>
